<svg version="1.1" id="Layer_1" xmlns="http://www.w3.org/2000/svg" xmlns:xlink="http://www.w3.org/1999/xlink" x="0px" y="0px"
	 width="100%" viewBox="0 0 500 500" enable-background="new 0 0 500 500" xml:space="preserve">
<path fill="#000000" opacity="1.000000" stroke="none" 
	d="
M500.782532,61.724091 
	C501.000000,106.687561 501.000000,151.375122 501.000000,196.531342 
	C499.850464,199.251175 498.163086,201.059204 496.386871,202.830322 
	C481.883575,217.291824 467.407928,231.781082 452.929047,246.267075 
	C448.208405,250.990036 448.206085,251.006134 452.788635,255.591644 
	C467.384125,270.196503 481.988892,284.792084 496.585266,299.396088 
	C498.110626,300.922241 499.785950,302.336517 500.783203,304.725983 
	C501.000000,349.687561 501.000000,394.375122 501.000000,439.531342 
	C499.944336,441.891541 498.655060,443.578308 497.106537,445.122223 
	C479.800751,462.376495 462.529877,479.665802 445.250214,496.946289 
	C443.840210,498.356354 442.493195,499.845917 440.275909,500.782532 
	C428.645782,501.000000 417.291534,501.000000 405.468658,501.000000 
	C402.575378,499.795532 400.702728,497.920288 398.816010,496.032104 
	C367.854889,465.046753 336.878998,434.076172 305.904083,403.104645 
	C301.007324,398.208344 300.995270,398.206543 296.237305,402.963806 
	C265.261871,433.934814 234.292282,464.911713 203.309418,495.875275 
	C201.553802,497.629791 199.991425,499.645355 197.274475,500.783264 
	C185.645767,501.000000 174.291550,501.000000 162.468658,501.000000 
	C159.924637,499.898712 158.171127,498.412079 156.508987,496.748322 
	C116.938766,457.141479 77.342194,417.560944 37.761879,377.964203 
	C32.488907,372.688995 32.496269,372.334137 37.562187,367.231354 
	C63.269329,341.337097 89.343651,315.808655 114.822693,289.687012 
	C115.051552,289.452362 115.369331,289.313080 116.038933,289.029968 
	C127.526634,288.070068 138.711426,288.856598 149.814453,287.516937 
	C151.787460,287.278900 153.798996,287.295654 155.792999,287.145477 
	C159.806229,286.843201 161.648178,285.075531 161.559586,280.777527 
	C161.416855,273.852448 161.322510,273.656586 154.237579,273.479584 
	C148.232315,273.329559 142.337341,275.238770 135.925049,274.199677 
	C131.897766,272.362213 134.443283,270.562042 135.716843,269.193054 
	C140.231644,264.339844 145.046799,259.774109 149.706940,255.058517 
	C153.714645,251.003098 153.719650,250.979828 149.581665,246.817749 
	C142.803741,240.000397 135.918457,233.288177 129.253845,226.361465 
	C128.010437,225.069199 125.176537,223.731323 128.225143,221.031097 
	C137.563828,219.952179 146.558075,220.673615 155.537094,220.446518 
	C161.137558,220.304871 161.421631,220.004517 161.446304,213.876022 
	C161.473236,207.183365 161.114563,206.570679 155.689529,206.591492 
	C141.373154,206.646408 127.053246,206.212875 112.342209,206.856140 
	C109.504044,206.896545 108.032654,205.232407 106.505615,203.706436 
	C83.303627,180.520676 60.099693,157.336838 36.930302,134.118515 
	C32.715565,129.894867 32.717449,129.099731 37.004551,124.808060 
	C77.130951,84.638924 117.288033,44.500443 157.432907,4.349760 
	C158.619400,3.163081 159.847000,2.056794 161.718719,1.218434 
	C173.354233,1.000000 184.708450,1.000000 196.531342,1.000000 
	C199.424667,2.204415 201.297272,4.079750 203.183975,5.967932 
	C234.144958,36.953327 265.120880,67.923813 296.095734,98.895348 
	C300.992706,103.791817 301.004761,103.793617 305.762634,99.036392 
	C336.738007,68.065384 367.707489,37.088467 398.690338,6.124937 
	C400.446014,4.370342 402.008484,2.354699 404.725525,1.216722 
	C416.354218,1.000000 427.708466,1.000000 439.531342,1.000000 
	C441.891602,2.055604 443.578339,3.344935 445.122223,4.893457 
	C462.376465,22.199265 479.665833,39.470024 496.946228,56.749752 
	C498.356293,58.159760 499.845886,59.506794 500.782532,61.724091 
z"/>
<path fill="#FE914D" opacity="1.000000" stroke="none" 
	d="
M161.531342,1.000000 
	C160.784897,2.345387 159.626617,3.747601 158.346436,5.027915 
	C117.940399,45.438034 77.549156,85.863068 37.045860,126.175507 
	C34.377453,128.831345 34.122627,130.178986 36.956963,132.983582 
	C61.233856,157.005951 85.330078,181.210907 109.659103,205.624664 
	C109.138763,207.577408 107.574860,208.276688 106.108887,209.021408 
	C101.264099,211.482544 98.490959,215.565430 97.773682,220.753448 
	C95.441284,237.623642 96.130409,254.567978 97.100410,271.491791 
	C97.653198,281.136444 103.098122,286.614014 112.401665,288.514435 
	C113.381332,288.714569 114.335777,289.007874 115.370132,289.979492 
	C89.618622,316.370361 63.739292,342.487366 37.587990,368.329132 
	C34.027187,371.847778 34.527958,373.364532 37.771561,376.588287 
	C79.193573,417.756561 120.453903,459.087524 161.877655,500.688568 
	C109.694527,501.000000 57.388977,500.965179 5.083776,501.083984 
	C1.845607,501.091339 0.892795,500.684662 0.895437,497.087738 
	C1.015957,333.008575 1.017493,168.929291 0.889188,4.850132 
	C0.886276,1.125949 2.037877,0.920172 5.145842,0.926344 
	C57.117966,1.029555 109.090355,1.000000 161.531342,1.000000 
z"/>
<path fill="#FE904D" opacity="1.000000" stroke="none" 
	d="
M404.531342,0.999994 
	C371.211700,34.829239 337.394775,68.630051 303.695190,102.547447 
	C301.276337,104.981934 300.094849,104.608917 297.903320,102.407974 
	C264.401489,68.762245 230.813904,35.201962 197.123138,1.310882 
	C266.020905,1.000000 335.041779,1.000000 404.531342,0.999994 
z"/>
<path fill="#FE904D" opacity="1.000000" stroke="none" 
	d="
M197.468658,501.000000 
	C197.859985,500.005280 198.661362,498.952057 199.588409,498.024323 
	C232.212021,465.376892 264.883331,432.776917 297.416077,400.039215 
	C300.146973,397.291107 301.530487,397.224731 304.299805,400.011871 
	C337.652527,433.578918 371.145142,467.006989 404.800629,500.735657 
	C335.979095,501.000000 266.958221,501.000000 197.468658,501.000000 
z"/>
<path fill="#FD904C" opacity="1.000000" stroke="none" 
	d="
M501.000000,304.531342 
	C483.543427,287.675873 466.132172,270.305603 448.582428,253.076370 
	C445.889160,250.432281 448.197571,249.430069 449.582092,248.044922 
	C466.506531,231.112305 483.457550,214.206238 500.700836,197.146637 
	C501.000000,232.687561 501.000000,268.375122 501.000000,304.531342 
z"/>
<path fill="#FF914D" opacity="1.000000" stroke="none" 
	d="
M501.000000,61.531342 
	C500.224213,61.445633 499.351746,60.987930 498.686707,60.322834 
	C479.149078,40.784309 459.632111,21.225115 440.055939,1.334611 
	C459.263733,1.000000 478.528137,1.077206 497.790527,0.915240 
	C500.620331,0.891445 501.096741,1.564231 501.076202,4.268422 
	C500.932281,23.198940 501.000000,42.131069 501.000000,61.531342 
z"/>
<path fill="#FF914D" opacity="1.000000" stroke="none" 
	d="
M440.468628,501.000000 
	C440.335083,500.452972 440.577576,499.813385 441.018616,499.372284 
	C460.778168,479.607361 480.555145,459.859924 500.665039,440.055206 
	C501.000000,459.263733 500.922791,478.528137 501.084778,497.790527 
	C501.108582,500.620361 500.435760,501.096710 497.731567,501.076172 
	C478.801056,500.932281 459.868927,501.000000 440.468628,501.000000 
z"/>
<path fill="#FCFCFC" opacity="1.000000" stroke="none" 
	d="
M247.429352,221.757843 
	C248.282364,238.151978 248.341354,254.145340 247.610687,270.085541 
	C246.993469,283.550476 239.988968,289.735840 226.364319,290.053925 
	C214.555664,290.329559 202.728928,290.344788 190.921753,290.034485 
	C177.241486,289.674927 170.285721,282.858856 169.987305,269.277740 
	C169.658386,254.308456 169.660614,239.319717 170.016281,224.351273 
	C170.326752,211.285919 177.255432,204.382645 190.300171,204.020203 
	C202.770096,203.673752 215.265442,203.687790 227.735062,204.047455 
	C239.434265,204.384872 245.318451,209.894653 247.429352,221.757843 
z"/>
<path fill="#FCFCFC" opacity="1.000000" stroke="none" 
	d="
M348.194427,222.156189 
	C348.556702,221.563416 348.736877,221.284195 348.920929,221.007568 
	C352.399902,215.779358 354.185944,207.618469 359.314941,205.753403 
	C366.022003,203.314499 374.285522,205.155869 382.723816,205.155869 
	C379.736420,209.818283 377.097687,213.946548 374.448883,218.068314 
	C369.416016,225.899902 364.684937,233.951248 359.221222,241.470047 
	C356.139282,245.711258 356.623627,248.604126 359.451324,252.680511 
	C367.564697,264.376678 375.184021,276.415527 383.446869,289.004303 
	C375.608398,289.004303 368.530090,288.890503 361.458984,289.067017 
	C359.033508,289.127533 358.413849,287.514923 357.457306,286.018524 
	C352.553864,278.347595 347.653198,270.674927 342.578217,262.731598 
	C337.512268,270.695496 332.580963,278.196136 327.947479,285.876495 
	C326.448334,288.361481 324.745117,289.151001 321.952026,289.066925 
	C315.500397,288.872742 309.038940,289.005219 301.786804,289.005219 
	C306.283417,282.135071 310.421234,275.808289 314.564514,269.485107 
	C316.295807,266.842926 318.117920,264.256531 319.758972,261.559723 
	C322.768829,256.613617 328.691406,252.022842 328.377563,246.881775 
	C328.066650,241.789291 322.868073,236.975784 319.753052,232.078217 
	C314.223541,223.384506 308.647675,214.720276 303.103271,206.035995 
	C303.040344,205.937408 303.139221,205.735504 303.251221,204.998322 
	C310.371124,204.998322 317.595764,205.035828 324.819580,204.975967 
	C327.046997,204.957504 327.382507,206.796417 328.208618,208.113083 
	C332.959320,215.684555 337.656250,223.289734 342.589630,231.234879 
	C344.529327,228.101059 346.271729,225.286026 348.194427,222.156189 
z"/>
<path fill="#FDFCFB" opacity="1.000000" stroke="none" 
	d="
M115.999573,290.254700 
	C101.397766,288.315582 95.995399,283.269684 95.532242,269.167419 
	C95.032204,253.942322 94.633926,238.663193 95.911728,223.430710 
	C96.631577,214.849579 100.637932,208.739334 109.523865,206.034180 
	C126.613823,203.969818 143.451340,205.504105 160.250549,204.959381 
	C162.641479,204.881851 162.817078,206.014053 162.917725,207.963531 
	C163.637421,221.903717 163.677750,221.900238 149.649734,221.902206 
	C142.317307,221.903229 134.984879,221.910141 127.168182,221.983063 
	C119.099724,223.942780 118.109108,229.423706 118.397919,236.176376 
	C118.781830,245.152878 118.419357,254.158386 118.520187,263.150177 
	C118.597610,270.055206 119.922974,271.322205 126.690399,271.511353 
	C128.841537,271.571472 131.038330,271.326630 133.373413,272.653320 
	C142.183136,273.399231 150.609085,272.165253 159.067963,271.749756 
	C162.250626,271.593414 162.927124,272.454742 162.949448,275.505341 
	C163.042908,288.278259 163.144333,288.191040 150.292892,288.943176 
	C139.007233,289.603638 127.727875,290.304688 115.999573,290.254700 
z"/>
<path fill="#FAFAFA" opacity="1.000000" stroke="none" 
	d="
M288.876770,253.999329 
	C288.876801,259.164825 289.023499,263.836975 288.820862,268.493896 
	C288.702606,271.211090 289.373840,272.190552 292.318817,272.176575 
	C299.686035,272.141663 299.686798,272.310211 299.686890,279.421417 
	C299.687042,289.008667 299.687042,289.008667 290.145447,289.008667 
	C280.480682,289.008667 270.806396,288.757721 261.155426,289.122314 
	C256.812958,289.286377 255.516220,287.853607 256.171448,283.839844 
	C256.356934,282.703705 256.199829,281.511627 256.199829,280.345184 
	C256.199829,272.533112 256.195953,272.399597 264.134979,272.171509 
	C266.642639,272.099457 267.122528,271.270538 267.108887,268.994690 
	C267.021118,254.331421 266.982086,239.666504 267.134155,225.004288 
	C267.164001,222.125565 265.999329,221.873505 263.631836,221.851883 
	C256.198975,221.783997 256.199829,221.690353 256.199799,214.153229 
	C256.199768,204.991318 256.199768,204.991333 265.151825,204.991333 
	C275.483124,204.991348 285.816101,205.092697 296.144684,204.926025 
	C299.026733,204.879501 300.035004,205.779556 299.720398,208.584976 
	C299.535858,210.230621 299.686890,211.913895 299.686890,213.580231 
	C299.686920,221.466400 299.690796,221.599228 291.814758,221.829224 
	C289.314941,221.902222 288.804779,222.720505 288.831116,225.005768 
	C288.940552,234.502609 288.876892,244.001450 288.876770,253.999329 
z"/>
<path fill="#FB8F4D" opacity="1.000000" stroke="none" 
	d="
M133.804474,272.619263 
	C130.365585,273.025757 127.044510,273.062683 123.727219,273.194763 
	C119.614883,273.358521 117.267998,271.260284 117.222038,267.335236 
	C117.070183,254.366470 117.032112,241.392273 117.251053,228.425232 
	C117.342224,223.025467 121.180382,221.626770 126.299774,221.965576 
	C135.141968,230.677017 143.507782,239.396027 152.117645,247.866959 
	C154.515732,250.226410 154.880142,251.548416 152.231949,254.032410 
	C145.948563,259.926239 140.004913,266.182251 133.804474,272.619263 
z"/>
<path fill="#FFFEFD" opacity="1.000000" stroke="none" 
	d="
M71.263687,236.282776 
	C64.177483,243.586044 65.132744,249.975189 71.030899,257.576355 
	C78.446663,267.133270 84.537621,277.718201 91.872131,288.882202 
	C83.461418,288.882202 75.954765,288.958954 68.452400,288.814026 
	C67.040657,288.786774 66.623314,287.026123 65.918243,285.931061 
	C61.683609,279.354218 57.379879,272.819336 53.286255,266.155518 
	C51.636871,263.470581 50.608715,263.286926 48.894600,266.088776 
	C44.813236,272.760101 40.445080,279.256378 36.382519,285.938690 
	C35.015495,288.187225 33.509003,289.158691 30.801794,289.071808 
	C24.348795,288.864746 17.884653,289.005035 11.435598,289.005035 
	C10.975440,286.737732 12.464109,285.623596 13.319161,284.310547 
	C20.584929,273.153046 27.791695,261.953430 35.295761,250.957214 
	C37.321079,247.989426 37.282135,245.875687 35.342514,242.956726 
	C28.158648,232.145569 21.188749,221.191406 14.217472,210.240692 
	C13.272799,208.756760 11.811933,207.473343 11.676119,205.007370 
	C18.861055,205.007370 25.947449,205.057709 33.032356,204.977173 
	C35.199295,204.952530 35.777256,206.565491 36.627815,207.928680 
	C40.592049,214.282059 44.719753,220.545700 48.388283,227.066849 
	C50.655754,231.097488 51.865631,230.339752 53.833824,226.933243 
	C57.495682,220.595367 61.533794,214.475555 65.232941,208.158203 
	C66.547485,205.913254 67.984062,204.835358 70.731552,204.926270 
	C77.213852,205.140793 83.708061,204.995087 91.314468,204.995087 
	C84.428604,215.736877 77.942101,225.855667 71.263687,236.282776 
z"/>
<path fill="#030303" opacity="1.000000" stroke="none" 
	d="
M191.441925,243.002563 
	C191.449219,237.678452 191.320969,232.848587 191.499817,228.030151 
	C191.700409,222.625854 193.492538,220.858536 198.828857,220.763977 
	C205.481674,220.646072 212.140030,220.648529 218.792709,220.773254 
	C224.115707,220.873032 226.033264,222.764755 226.069519,228.041580 
	C226.156372,240.685547 226.156815,253.330917 226.069122,265.974884 
	C226.032608,271.240997 224.101501,273.133972 218.779572,273.230164 
	C212.126709,273.350372 205.468506,273.354248 198.815613,273.237823 
	C193.492752,273.144714 191.637482,271.369720 191.506775,265.961334 
	C191.325943,258.478699 191.449005,250.988724 191.441925,243.002563 
z"/>
</svg>